<svg width="550" height="291" viewBox="0 0 550 291" fill="none" xmlns="http://www.w3.org/2000/svg">
<g id="education 1">
<path id="cap-tie" d="M501.278 277.355C501.278 277.546 501.214 277.737 501.086 278.311C490.376 272.701 479.603 272.51 468.383 278.502C468.829 273.53 469.211 269.004 469.658 264.477C471.06 250.644 472.526 236.81 473.865 222.976C474.439 217.175 476.288 212.011 481.133 208.122C476.798 205.891 473.929 202.767 473.865 197.731C473.801 193.524 475.65 190.464 479.029 188.041C479.921 187.404 480.878 186.192 480.878 185.236C481.005 167.514 480.941 149.727 480.941 132.005C480.941 131.686 480.814 131.431 480.623 130.73C480.24 130.857 479.858 131.049 479.411 131.176L490.185 127.096C489.038 127.67 488.591 128.435 488.591 129.965C488.655 148.261 488.591 166.494 488.719 184.79C488.719 185.746 489.229 187.212 489.994 187.595C497.771 191.675 497.963 203.66 489.165 207.612C488.974 207.676 488.91 207.867 488.655 208.122C493.883 212.266 495.413 218.067 495.986 224.379C497.644 242.101 499.493 259.76 501.278 277.355Z" fill="black"/>

<path id="cap-top" d="M537.934 109.183C527.67 113.071 517.98 116.705 508.29 120.339C502.553 122.506 496.815 124.674 491.014 126.778C490.759 126.905 490.504 126.969 490.313 127.096L479.539 131.176C476.288 132.388 473.164 133.535 469.976 134.746C456.398 139.846 442.755 144.883 429.176 150.11C426.754 151.066 424.65 151.066 422.228 150.11C390.608 137.87 357.968 129.646 324.244 125.63C255.904 117.534 189.54 125.566 125.153 150.11C123.495 150.748 121.136 150.811 119.479 150.238C83.6513 136.914 47.8875 123.526 12.1875 110.075C11.6138 109.884 11.04 109.565 10.02 109.055C17.0325 106.378 23.6625 103.828 30.2925 101.405C110.554 71.3151 190.815 41.2251 271.013 11.0713C273.053 10.3063 274.71 10.3063 276.75 11.0713C362.366 43.2651 447.983 75.3313 533.599 107.461C534.874 107.971 536.149 108.481 537.934 109.183Z" stroke="black" stroke-width="5" stroke-miterlimit="10"/>

<path id="cap-bottom" d="M421.717 267.346C414.322 264.541 407.31 261.354 400.106 259.186C366.892 249.114 333.424 247.903 299.955 257.593C291.667 259.951 284.017 264.35 275.985 267.729C274.965 268.175 273.435 268.685 272.67 268.239C257.88 259.25 241.56 254.724 224.602 252.62C194.895 248.986 165.889 251.855 137.839 262.629C134.014 264.095 130.316 265.88 126.236 267.729C126.172 266.454 126.109 265.434 126.109 264.478C126.109 232.794 126.109 201.174 126.045 169.49C126.045 167.068 126.746 165.984 128.977 165.091C180.806 145.201 234.484 136.213 289.946 138.38C334.252 140.101 377.029 149.09 418.466 164.964C420.952 165.92 421.781 167.068 421.717 169.745C421.59 201.174 421.654 232.603 421.654 264.095C421.717 265.115 421.717 266.135 421.717 267.346Z" stroke="black" stroke-width="5" stroke-miterlimit="10"/>
</g>
</svg>
