<svg width="584" height="588" viewBox="0 0 584 588" fill="none" xmlns="http://www.w3.org/2000/svg">
<g id="skillv">
<path id="skillout" d="M546.831 242.5C514.531 243 488.031 216.4 491.131 184.2C492.031 174.3 500.831 164.1 508.231 156.2C531.931 131.1 532.331 126.4 507.931 102C497.731 91.8 487.531 81.5 477.231 71.4C465.731 60.1 454.031 60.2 442.331 71.3C441.431 72.1 440.531 72.9 439.731 73.8C403.731 112 405.131 99 360.031 80.7C352.831 77.8 348.431 62.3 346.831 52C344.931 39.2 348.031 25.2 340.931 13.9C339.431 11.6 337.631 9.40002 335.131 7.30002C335.131 7.30002 335.031 7.20001 334.931 7.20001H334.831C327.831 3.00001 315.631 3 293.731 3C271.731 3 259.131 3.00001 251.731 7.20001H251.631L251.531 7.30002C248.031 10.3 245.631 13.7 244.031 17.3C240.231 25.8 240.631 35.4 240.731 45.2C241.031 75.4 238.731 74.3 212.631 88.1C184.731 102.9 166.031 96.7 146.931 74C132.531 56.8 122.331 58 106.131 73.9C93.6306 86.1 81.3306 98.5 69.0306 110.9C57.6306 122.4 57.6306 134 68.9306 145.7C69.3306 146.1 69.7306 146.6 70.2306 147C111.431 184.1 96.2306 183.4 80.9306 226.3C76.3306 239.2 64.8306 242.4 51.5306 242.5C3.3306 242.8 3.1306 243.3 3.1306 290.8C3.1306 301.6 2.73062 312.5 3.33062 323.3C4.33062 341.1 12.9306 349.3 30.6306 350.3C31.8306 350.4 33.0306 350.4 34.2306 350.3C86.5306 348.5 74.7306 354.4 94.3306 397.8C97.4306 404.7 91.7306 419.2 85.5306 426.2C53.2306 462.6 52.7306 462.1 87.7306 497.2C94.9306 504.4 102.131 511.7 109.531 518.9C121.231 530.2 132.831 529.9 144.331 518.6C144.731 518.2 145.231 517.8 145.631 517.3C182.231 476.6 182.231 490.8 224.731 507.6C232.431 510.7 239.531 525.1 240.131 534.7C240.831 546.9 241.231 556.1 242.231 563.1C245.431 585.3 254.131 585.4 292.331 585.4C330.831 585.4 340.431 585.4 343.931 563.1C345.031 555.7 345.531 545.9 346.131 532.9C346.731 518.6 352.531 508.9 366.631 504.5C371.731 502.9 376.731 500.7 381.731 498.6C407.831 487.4 411.631 488.1 432.231 508.6C457.431 533.7 462.231 533.7 487.531 508.4C497.331 498.6 507.331 489 516.831 478.9C529.331 465.7 529.131 456.3 516.931 442.9C516.131 442 515.231 441.2 514.431 440.3C484.931 409.8 483.831 398.5 506.431 362.3C515.131 348.4 528.731 349.7 541.831 350.3C558.231 351.1 573.331 350.4 581.031 332.5V256.6C573.231 243.4 560.631 242.3 546.831 242.5Z" stroke="#67b5e6" stroke-width="10" stroke-miterlimit="10" />
<path id="skillin" d="M291.802 462.6C197.902 462.4 123.503 387.3 124.003 293.1C124.503 200.3 199.703 125.8 292.703 126C386.003 126.2 461.402 202.4 460.802 295.7C460.202 388.4 384.802 462.8 291.802 462.6Z" stroke="#67b5e6" stroke-width="10" stroke-miterlimit="10" />
</g>
</svg>
